<svg width="121" height="36" viewBox="0 0 121 36" fill="none" xmlns="http://www.w3.org/2000/svg">
<path d="M12.8116 21.8917H5.75089V29.1271H1.37223V10.9638H13.5227V14.3445H5.75089V18.5235H12.8116V21.8917ZM19.5855 29.1271H15.369V15.6294H19.5855V29.1271ZM15.1195 12.1489C15.1195 11.5501 15.3357 11.0594 15.7682 10.6769C16.2006 10.2943 16.762 10.103 17.4523 10.103C18.1425 10.103 18.7039 10.2943 19.1364 10.6769C19.5688 11.0594 19.7851 11.5501 19.7851 12.1489C19.7851 12.7477 19.5688 13.2384 19.1364 13.6209C18.7039 14.0035 18.1425 14.1948 17.4523 14.1948C16.762 14.1948 16.2006 14.0035 15.7682 13.6209C15.3357 13.2384 15.1195 12.7477 15.1195 12.1489ZM28.717 29.3766C26.6462 29.3766 24.9704 28.7612 23.6897 27.5304C22.4089 26.2912 21.7686 24.6819 21.7686 22.7026V22.3533C21.7686 20.9728 22.0222 19.7544 22.5295 18.6982C23.0451 17.642 23.7936 16.827 24.775 16.2531C25.7563 15.671 26.9207 15.3799 28.2679 15.3799C30.1641 15.3799 31.6611 15.9704 32.7589 17.1513C33.8566 18.3239 34.4055 19.9623 34.4055 22.0664V23.7006H26.0474C26.1971 24.4574 26.5256 25.052 27.0329 25.4845C27.5402 25.917 28.1972 26.1332 29.0039 26.1332C30.3346 26.1332 31.3742 25.6675 32.1226 24.736L34.0438 27.0064C33.5198 27.73 32.7755 28.308 31.8108 28.7404C30.8544 29.1646 29.8231 29.3766 28.717 29.3766ZM28.243 18.6233C27.0121 18.6233 26.2803 19.4384 26.0474 21.0684H30.2889V20.7441C30.3055 20.0704 30.135 19.5506 29.7774 19.1847C29.4198 18.8105 28.9083 18.6233 28.243 18.6233ZM44.2731 19.4342L42.8884 19.3344C41.5661 19.3344 40.7178 19.7502 40.3436 20.5819V29.1271H36.1395V15.6294H40.0816L40.2188 17.3634C40.9257 16.0411 41.9112 15.3799 43.1753 15.3799C43.6244 15.3799 44.0153 15.4298 44.348 15.5296L44.2731 19.4342ZM51.2465 26.1332C51.837 26.1332 52.2944 25.9752 52.6188 25.6591C52.9431 25.3348 53.1011 24.8857 53.0928 24.3119H57.0349C57.0349 25.7922 56.5026 27.0064 55.4381 27.9545C54.3819 28.9026 53.018 29.3766 51.3463 29.3766C49.3836 29.3766 47.8368 28.7612 46.7057 27.5304C45.5747 26.2995 45.0091 24.5946 45.0091 22.4157V22.241C45.0091 20.8771 45.2586 19.6754 45.7576 18.6358C46.2649 17.5879 46.9926 16.7854 47.9407 16.2282C48.8888 15.6627 50.0115 15.3799 51.3089 15.3799C53.0637 15.3799 54.4567 15.8664 55.488 16.8394C56.5192 17.8125 57.0349 19.1307 57.0349 20.794H53.0928C53.0928 20.0954 52.9223 19.559 52.5813 19.1847C52.2404 18.8105 51.783 18.6233 51.2091 18.6233C50.1196 18.6233 49.4834 19.3178 49.3005 20.7066C49.2423 21.1474 49.2131 21.7545 49.2131 22.528C49.2131 23.8836 49.3753 24.8233 49.6997 25.3473C50.024 25.8712 50.5396 26.1332 51.2465 26.1332ZM65.3431 29.3766C63.2723 29.3766 61.5965 28.7612 60.3157 27.5304C59.035 26.2912 58.3946 24.6819 58.3946 22.7026V22.3533C58.3946 20.9728 58.6483 19.7544 59.1556 18.6982C59.6712 17.642 60.4197 16.827 61.401 16.2531C62.3824 15.671 63.5467 15.3799 64.894 15.3799C66.7902 15.3799 68.2871 15.9704 69.3849 17.1513C70.4827 18.3239 71.0316 19.9623 71.0316 22.0664V23.7006H62.6735C62.8232 24.4574 63.1517 25.052 63.659 25.4845C64.1663 25.917 64.8233 26.1332 65.63 26.1332C66.9607 26.1332 68.0002 25.6675 68.7487 24.736L70.6698 27.0064C70.1459 27.73 69.4016 28.308 68.4368 28.7404C67.4804 29.1646 66.4492 29.3766 65.3431 29.3766ZM64.869 18.6233C63.6382 18.6233 62.9063 19.4384 62.6735 21.0684H66.9149V20.7441C66.9315 20.0704 66.7611 19.5506 66.4034 19.1847C66.0458 18.8105 65.5344 18.6233 64.869 18.6233ZM87.6231 29.1271H85.2155V20.7316H76.059V29.1271H73.6638V10.9638H76.059V18.773H85.2155V10.9638H87.6231V29.1271ZM98.5386 21.7795H94.2722V29.1271H91.8645V10.9638H97.8774C99.9233 10.9638 101.495 11.4295 102.593 12.361C103.699 13.2924 104.252 14.648 104.252 16.4278C104.252 17.5588 103.944 18.5443 103.329 19.3843C102.722 20.2243 101.873 20.8522 100.784 21.268L105.05 28.9774V29.1271H102.481L98.5386 21.7795ZM94.2722 19.8209H97.9522C99.1415 19.8209 100.085 19.5132 100.784 18.8978C101.491 18.2824 101.844 17.459 101.844 16.4278C101.844 15.305 101.508 14.4443 100.834 13.8455C100.169 13.2467 99.2039 12.9431 97.9398 12.9348H94.2722V19.8209Z" fill="#AF010B"/>
<path d="M111.502 3.50098H109.159V10H108.202V3.50098H105.864V2.70988H111.502V3.50098ZM113.825 2.70988L116.208 8.65814L118.592 2.70988H119.838V10H118.877V7.16106L118.967 4.0968L116.574 10H115.838L113.45 4.11182L113.545 7.16106V10H112.583V2.70988H113.825Z" fill="#AF010B"/>
</svg>
