<svg width="245" height="57" viewBox="0 0 245 57" fill="none" xmlns="http://www.w3.org/2000/svg">
<path d="M25.5797 40.7489H11.4822V55.1951H2.73979V18.9302H26.9994V25.68H11.4822V34.0239H25.5797V40.7489ZM39.1043 55.1951H30.6857V28.2455H39.1043V55.1951ZM30.1875 21.2964C30.1875 20.1008 30.6193 19.1211 31.4827 18.3573C32.3461 17.5935 33.467 17.2116 34.8452 17.2116C36.2234 17.2116 37.3442 17.5935 38.2076 18.3573C39.0711 19.1211 39.5028 20.1008 39.5028 21.2964C39.5028 22.4919 39.0711 23.4716 38.2076 24.2354C37.3442 24.9992 36.2234 25.3812 34.8452 25.3812C33.467 25.3812 32.3461 24.9992 31.4827 24.2354C30.6193 23.4716 30.1875 22.4919 30.1875 21.2964ZM57.3364 55.6932C53.2018 55.6932 49.8559 54.4645 47.2988 52.0069C44.7416 49.5328 43.4631 46.3198 43.4631 42.3679V41.6705C43.4631 38.9141 43.9695 36.4815 44.9824 34.3726C46.0119 32.2638 47.5063 30.6366 49.4657 29.4908C51.4251 28.3285 53.7497 27.7473 56.4397 27.7473C60.2256 27.7473 63.2145 28.9263 65.4063 31.2842C67.5981 33.6254 68.6941 36.8966 68.6941 41.0976V44.3604H52.0062C52.3051 45.8715 52.961 47.0587 53.9739 47.9222C54.9868 48.7856 56.2986 49.2173 57.9092 49.2173C60.566 49.2173 62.6416 48.2875 64.136 46.4277L67.9717 50.9608C66.9256 52.4055 65.4395 53.5595 63.5134 54.4229C61.6038 55.2698 59.5448 55.6932 57.3364 55.6932ZM56.3899 34.2232C53.9324 34.2232 52.4712 35.8505 52.0062 39.105H60.4747V38.4574C60.5079 37.1124 60.1675 36.0746 59.4535 35.344C58.7395 34.5968 57.7183 34.2232 56.3899 34.2232ZM88.3957 35.8422L85.631 35.6429C82.9908 35.6429 81.2971 36.4732 80.5499 38.1336V55.1951H72.1562V28.2455H80.0268L80.3008 31.7076C81.7122 29.0674 83.6799 27.7473 86.2038 27.7473C87.1005 27.7473 87.8809 27.847 88.5451 28.0462L88.3957 35.8422ZM102.319 49.2173C103.498 49.2173 104.411 48.9018 105.059 48.2709C105.706 47.6233 106.022 46.7266 106.005 45.5809H113.876C113.876 48.5365 112.813 50.9608 110.688 52.8538C108.579 54.7467 105.856 55.6932 102.518 55.6932C98.5993 55.6932 95.5108 54.4645 93.2526 52.0069C90.9943 49.5494 89.8652 46.1455 89.8652 41.795V41.4463C89.8652 38.7231 90.3633 36.3237 91.3596 34.2481C92.3725 32.1559 93.8254 30.5535 95.7184 29.441C97.6113 28.3119 99.853 27.7473 102.443 27.7473C105.947 27.7473 108.728 28.7187 110.787 30.6615C112.846 32.6042 113.876 35.2361 113.876 38.5571H106.005C106.005 37.1623 105.665 36.0912 104.984 35.344C104.303 34.5968 103.39 34.2232 102.244 34.2232C100.069 34.2232 98.7986 35.6097 98.4333 38.3827C98.317 39.2628 98.2589 40.4749 98.2589 42.0192C98.2589 44.7257 98.5827 46.6021 99.2303 47.6482C99.8779 48.6943 100.907 49.2173 102.319 49.2173ZM130.464 55.6932C126.329 55.6932 122.983 54.4645 120.426 52.0069C117.869 49.5328 116.591 46.3198 116.591 42.3679V41.6705C116.591 38.9141 117.097 36.4815 118.11 34.3726C119.139 32.2638 120.634 30.6366 122.593 29.4908C124.553 28.3285 126.877 27.7473 129.567 27.7473C133.353 27.7473 136.342 28.9263 138.534 31.2842C140.726 33.6254 141.822 36.8966 141.822 41.0976V44.3604H125.134C125.433 45.8715 126.089 47.0587 127.101 47.9222C128.114 48.7856 129.426 49.2173 131.037 49.2173C133.694 49.2173 135.769 48.2875 137.264 46.4277L141.099 50.9608C140.053 52.4055 138.567 53.5595 136.641 54.4229C134.731 55.2698 132.672 55.6932 130.464 55.6932ZM129.517 34.2232C127.06 34.2232 125.599 35.8505 125.134 39.105H133.602V38.4574C133.635 37.1124 133.295 36.0746 132.581 35.344C131.867 34.5968 130.846 34.2232 129.517 34.2232ZM174.948 55.1951H170.141V38.4325H151.859V55.1951H147.077V18.9302H151.859V34.5221H170.141V18.9302H174.948V55.1951ZM196.742 40.5247H188.224V55.1951H183.417V18.9302H195.422C199.507 18.9302 202.645 19.8601 204.837 21.7198C207.045 23.5795 208.149 26.2861 208.149 29.8395C208.149 32.0978 207.535 34.0655 206.306 35.7425C205.094 37.4196 203.4 38.6733 201.225 39.5035L209.744 54.8962V55.1951H204.613L196.742 40.5247ZM188.224 36.6143H195.571C197.946 36.6143 199.83 35.9999 201.225 34.7712C202.637 33.5424 203.342 31.8985 203.342 29.8395C203.342 27.5979 202.67 25.8793 201.325 24.6837C199.997 23.4882 198.07 22.8821 195.546 22.8655H188.224V36.6143Z" fill="#AF010B"/>
<path d="M221.252 6.02406H216.573V19H214.664V6.02406H209.995V4.44455H221.252V6.02406ZM225.89 4.44455L230.649 16.3208L235.408 4.44455H237.897V19H235.977V13.3318L236.157 7.21369L231.379 19H229.909L225.141 7.24368L225.331 13.3318V19H223.411V4.44455H225.89Z" fill="#AF010B"/>
</svg>
