<svg width="39" height="39" viewBox="0 0 39 39" fill="none" xmlns="http://www.w3.org/2000/svg">
<path fill-rule="evenodd" clip-rule="evenodd" d="M23.5144 0.495144L23.3621 0.418968L23.343 0.457056C22.01 0.171396 20.6388 0 19.2295 0C8.71725 0 0.185547 8.5317 0.185547 19.044C0.185547 29.5563 8.71725 38.088 19.2295 38.088C29.7418 38.088 38.2735 29.5563 38.2735 19.044C38.2735 9.99809 31.97 2.43763 23.5144 0.495144ZM33.3411 13.3308H18.125L23.2859 4.38009C27.8565 5.63699 31.57 8.98873 33.3411 13.3308ZM15.9349 13.3308L21.3244 3.96115C20.6388 3.86593 19.9341 3.8088 19.2295 3.8088C15.0779 3.8088 11.3072 5.48467 8.56489 8.18892L13.7449 17.1396L15.9349 13.3308ZM7.23184 9.69344L12.6403 19.044L14.8304 22.8528H4.4895C4.1848 21.634 3.99436 20.3581 3.99436 19.044C3.99436 15.5209 5.21317 12.2834 7.23184 9.69344ZM20.315 24.7572H5.11794C6.88903 29.0992 10.5836 32.4319 15.1541 33.7079L20.315 24.7572ZM17.1347 34.1078L24.7332 20.9484L29.9132 29.899C27.1518 32.6033 23.3811 34.2792 19.2295 34.2792C18.5059 34.2792 17.8203 34.203 17.1347 34.1078ZM23.6096 15.2352L31.2272 28.3946C33.2459 25.8046 34.4647 22.5671 34.4647 19.044C34.4647 17.7299 34.2743 16.454 33.9505 15.2352H23.6096Z" fill="#AF010B"/>
</svg>
