<svg width="40" height="40" viewBox="0 0 40 40" fill="none" xmlns="http://www.w3.org/2000/svg">
<path fill-rule="evenodd" clip-rule="evenodd" d="M0.185547 19.8655C0.185547 30.8113 9.10514 39.7309 20.051 39.7309C22.7925 39.7309 25.0174 37.506 25.0174 34.7646C25.0174 33.5528 24.5605 32.3807 23.746 31.447C23.5871 31.2484 23.4877 31.0299 23.4877 30.7915C23.4877 30.2352 23.9248 29.7982 24.481 29.7982H27.9972C34.5727 29.7982 39.9165 24.4544 39.9165 17.8789C39.9165 8.02565 30.9969 0 20.051 0C9.10514 0 0.185547 8.9196 0.185547 19.8655ZM4.15863 19.8655C4.15863 11.1048 11.2903 3.97309 20.051 3.97309C28.8117 3.97309 35.9434 10.2109 35.9434 17.8789C35.9434 22.2692 32.3875 25.8251 27.9972 25.8251H24.481C21.7396 25.8251 19.5146 28.05 19.5146 30.7915C19.5146 31.9834 19.9517 33.1555 20.7662 34.0693C20.8854 34.2083 21.0443 34.4467 21.0443 34.7646C21.0443 35.3208 20.6072 35.7579 20.051 35.7579C11.2903 35.7579 4.15863 28.6261 4.15863 19.8655ZM9.12502 15.8924C7.47931 15.8924 6.1452 17.2265 6.1452 18.8722C6.1452 20.5179 7.47931 21.852 9.12502 21.852C10.7707 21.852 12.1048 20.5179 12.1048 18.8722C12.1048 17.2265 10.7707 15.8924 9.12502 15.8924ZM12.1048 10.926C12.1048 9.2803 13.439 7.94619 15.0847 7.94619C16.7304 7.94619 18.0645 9.2803 18.0645 10.926C18.0645 12.5717 16.7304 13.9058 15.0847 13.9058C13.439 13.9058 12.1048 12.5717 12.1048 10.926ZM25.0174 7.94619C23.3717 7.94619 22.0376 9.2803 22.0376 10.926C22.0376 12.5717 23.3717 13.9058 25.0174 13.9058C26.6631 13.9058 27.9972 12.5717 27.9972 10.926C27.9972 9.2803 26.6631 7.94619 25.0174 7.94619ZM27.9972 18.8722C27.9972 17.2265 29.3313 15.8924 30.977 15.8924C32.6227 15.8924 33.9568 17.2265 33.9568 18.8722C33.9568 20.5179 32.6227 21.852 30.977 21.852C29.3313 21.852 27.9972 20.5179 27.9972 18.8722Z" fill="#AF010B"/>
</svg>
