<svg width="52" height="45" viewBox="0 0 52 45" fill="none" xmlns="http://www.w3.org/2000/svg">
<path fill-rule="evenodd" clip-rule="evenodd" d="M32.5474 10.7873C32.5474 16.7473 27.7201 21.5746 21.7601 21.5746C15.8001 21.5746 10.9728 16.7473 10.9728 10.7873C10.9728 4.82731 15.8001 0 21.7601 0C27.7201 0 32.5474 4.82731 32.5474 10.7873ZM27.1537 10.7873C27.1537 7.82078 24.7266 5.39364 21.7601 5.39364C18.7936 5.39364 16.3664 7.82078 16.3664 10.7873C16.3664 13.7538 18.7936 16.1809 21.7601 16.1809C24.7266 16.1809 27.1537 13.7538 27.1537 10.7873ZM5.57919 37.7555C6.11855 36.0565 12.51 33.2248 18.9554 32.5237L24.4569 27.13C23.4052 27.0221 22.6231 26.9682 21.7601 26.9682C14.5596 26.9682 0.185547 30.5819 0.185547 37.7555V43.1491H24.4569L19.0633 37.7555H5.57919ZM33.8149 36.8655L47.6496 22.923L51.4251 26.7255L33.8149 44.4975L24.4569 35.0587L28.2324 31.2562L33.8149 36.8655Z" fill="#AF010B"/>
</svg>
