<svg width="122" height="36" viewBox="0 0 122 36" fill="none" xmlns="http://www.w3.org/2000/svg">
<path d="M12.9972 21.8918H5.93644V29.1272H1.55778V10.9639H13.7082V14.3445H5.93644V18.5236H12.9972V21.8918ZM19.771 29.1272H15.5545V15.6294H19.771V29.1272ZM15.305 12.149C15.305 11.5502 15.5213 11.0595 15.9537 10.6769C16.3862 10.2944 16.9475 10.1031 17.6378 10.1031C18.3281 10.1031 18.8895 10.2944 19.3219 10.6769C19.7544 11.0595 19.9706 11.5502 19.9706 12.149C19.9706 12.7478 19.7544 13.2384 19.3219 13.621C18.8895 14.0036 18.3281 14.1948 17.6378 14.1948C16.9475 14.1948 16.3862 14.0036 15.9537 13.621C15.5213 13.2384 15.305 12.7478 15.305 12.149ZM28.9026 29.3767C26.8318 29.3767 25.156 28.7613 23.8752 27.5304C22.5945 26.2913 21.9541 24.682 21.9541 22.7027V22.3534C21.9541 20.9728 22.2078 19.7545 22.7151 18.6983C23.2307 17.6421 23.9792 16.827 24.9605 16.2532C25.9419 15.671 27.1062 15.38 28.4535 15.38C30.3497 15.38 31.8466 15.9704 32.9444 17.1514C34.0422 18.324 34.5911 19.9624 34.5911 22.0665V23.7007H26.233C26.3827 24.4575 26.7112 25.0521 27.2185 25.4846C27.7258 25.917 28.3828 26.1332 29.1895 26.1332C30.5201 26.1332 31.5597 25.6675 32.3082 24.7361L34.2293 27.0065C33.7054 27.73 32.961 28.308 31.9963 28.7405C31.0399 29.1646 30.0087 29.3767 28.9026 29.3767ZM28.4285 18.6234C27.1977 18.6234 26.4658 19.4384 26.233 21.0685H30.4744V20.7441C30.491 20.0705 30.3205 19.5507 29.9629 19.1848C29.6053 18.8105 29.0939 18.6234 28.4285 18.6234ZM44.4587 19.4343L43.074 19.3345C41.7516 19.3345 40.9033 19.7503 40.5291 20.5819V29.1272H36.3251V15.6294H40.2671L40.4044 17.3634C41.1113 16.0411 42.0968 15.38 43.3609 15.38C43.81 15.38 44.2009 15.4298 44.5335 15.5296L44.4587 19.4343ZM51.4321 26.1332C52.0226 26.1332 52.48 25.9752 52.8043 25.6592C53.1287 25.3349 53.2867 24.8858 53.2784 24.3119H57.2204C57.2204 25.7923 56.6881 27.0065 55.6236 27.9546C54.5674 28.9027 53.2035 29.3767 51.5319 29.3767C49.5692 29.3767 48.0223 28.7613 46.8913 27.5304C45.7602 26.2996 45.1947 24.5947 45.1947 22.4157V22.2411C45.1947 20.8772 45.4442 19.6754 45.9432 18.6359C46.4505 17.588 47.1782 16.7854 48.1263 16.2282C49.0743 15.6627 50.1971 15.38 51.4945 15.38C53.2493 15.38 54.6423 15.8665 55.6735 16.8395C56.7048 17.8125 57.2204 19.1307 57.2204 20.794H53.2784C53.2784 20.0954 53.1079 19.559 52.7669 19.1848C52.4259 18.8105 51.9685 18.6234 51.3947 18.6234C50.3052 18.6234 49.669 19.3178 49.486 20.7067C49.4278 21.1475 49.3987 21.7546 49.3987 22.528C49.3987 23.8836 49.5609 24.8234 49.8852 25.3473C50.2096 25.8713 50.7252 26.1332 51.4321 26.1332ZM65.5286 29.3767C63.4578 29.3767 61.782 28.7613 60.5013 27.5304C59.2205 26.2913 58.5802 24.682 58.5802 22.7027V22.3534C58.5802 20.9728 58.8338 19.7545 59.3411 18.6983C59.8567 17.6421 60.6052 16.827 61.5866 16.2532C62.5679 15.671 63.7323 15.38 65.0795 15.38C66.9757 15.38 68.4727 15.9704 69.5705 17.1514C70.6683 18.324 71.2171 19.9624 71.2171 22.0665V23.7007H62.859C63.0087 24.4575 63.3372 25.0521 63.8445 25.4846C64.3518 25.917 65.0088 26.1332 65.8156 26.1332C67.1462 26.1332 68.1858 25.6675 68.9343 24.7361L70.8554 27.0065C70.3314 27.73 69.5871 28.308 68.6224 28.7405C67.666 29.1646 66.6347 29.3767 65.5286 29.3767ZM65.0546 18.6234C63.8237 18.6234 63.0919 19.4384 62.859 21.0685H67.1005V20.7441C67.1171 20.0705 66.9466 19.5507 66.589 19.1848C66.2314 18.8105 65.7199 18.6234 65.0546 18.6234ZM87.8087 29.1272H85.401V20.7316H76.2445V29.1272H73.8493V10.9639H76.2445V18.7731H85.401V10.9639H87.8087V29.1272ZM98.7241 21.7795H94.4577V29.1272H92.0501V10.9639H98.0629C100.109 10.9639 101.681 11.4296 102.778 12.361C103.885 13.2925 104.438 14.6481 104.438 16.4278C104.438 17.5589 104.13 18.5444 103.514 19.3844C102.907 20.2243 102.059 20.8522 100.97 21.2681L105.236 28.9775V29.1272H102.666L98.7241 21.7795ZM94.4577 19.821H98.1378C99.3271 19.821 100.271 19.5133 100.97 18.8978C101.676 18.2824 102.03 17.4591 102.03 16.4278C102.03 15.3051 101.693 14.4443 101.019 13.8455C100.354 13.2468 99.3894 12.9432 98.1253 12.9349H94.4577V19.821Z" fill="#AF010B"/>
<path d="M111.687 3.50098H109.344V10H108.388V3.50098H106.05V2.70988H111.687V3.50098ZM114.011 2.70988L116.394 8.65814L118.777 2.70988H120.024V10H119.063V7.16106L119.153 4.0968L116.759 10H116.023L113.635 4.11182L113.73 7.16106V10H112.769V2.70988H114.011Z" fill="#AF010B"/>
</svg>
