<svg width="82" height="71" viewBox="0 0 82 71" fill="none" xmlns="http://www.w3.org/2000/svg">
<path fill-rule="evenodd" clip-rule="evenodd" d="M51.5 17.1667C51.5 26.6513 43.8179 34.3333 34.3333 34.3333C24.8488 34.3333 17.1667 26.6513 17.1667 17.1667C17.1667 7.68208 24.8488 0 34.3333 0C43.8179 0 51.5 7.68208 51.5 17.1667ZM42.9167 17.1667C42.9167 12.4458 39.0542 8.58333 34.3333 8.58333C29.6125 8.58333 25.75 12.4458 25.75 17.1667C25.75 21.8875 29.6125 25.75 34.3333 25.75C39.0542 25.75 42.9167 21.8875 42.9167 17.1667ZM8.58333 60.0833C9.44167 57.3796 19.6129 52.8733 29.87 51.7575L38.625 43.1742C36.9512 43.0025 35.7067 42.9167 34.3333 42.9167C22.8746 42.9167 0 48.6675 0 60.0833V68.6667H38.625L30.0417 60.0833H8.58333ZM53.5171 58.6671L75.5333 36.4792L81.5417 42.5304L53.5171 70.8125L38.625 55.7917L44.6333 49.7404L53.5171 58.6671Z" fill="#AF010B"/>
</svg>
